<svg xmlns="http://www.w3.org/2000/svg" viewBox="0 0 650 1000" role="img" aria-label="Drift front panel controls">
<title>Drift front panel controls</title>
<style>
text{font-family:Ubuntu,"Ubuntu Sans",Arial,sans-serif}
.label{font-weight:700;fill:#1a1a1a}
.secondary{font-weight:300;fill:#8f8f8f}
.callout{font-weight:700;fill:white}
</style>
<rect width="650" height="1000" fill="white"/>
<rect x="235" y="35" width="190" height="910" rx="16" fill="#fbfbfb" stroke="#1a1a1a" stroke-width="4"/>
<circle cx="330" cy="55" r="6" fill="white" stroke="#1a1a1a" stroke-width="3"/>
<circle cx="330" cy="925" r="6" fill="white" stroke="#1a1a1a" stroke-width="3"/>
<text x="330" y="99" text-anchor="middle" font-size="36" font-weight="400" fill="#1a1a1a">Drift</text>
<circle cx="330" cy="205" r="38" fill="#df372f" stroke="#1a1a1a" stroke-width="5"/>
<circle cx="330" cy="205" r="23" fill="none" stroke="#1a1a1a" stroke-width="2"/>
<line x1="330" y1="205" x2="348.2" y2="186.8" stroke="white" stroke-width="6" stroke-linecap="round"/>
<text x="330" y="268" text-anchor="middle" font-size="20" class="label">Speed</text>
<circle cx="330" cy="335" r="38" fill="#f47b20" stroke="#1a1a1a" stroke-width="5"/>
<circle cx="330" cy="335" r="23" fill="none" stroke="#1a1a1a" stroke-width="2"/>
<line x1="330" y1="335" x2="348.2" y2="316.8" stroke="white" stroke-width="6" stroke-linecap="round"/>
<text x="330" y="398" text-anchor="middle" font-size="20" class="label">Texture</text>
<circle cx="330" cy="465" r="38" fill="#f8d13a" stroke="#1a1a1a" stroke-width="5"/>
<circle cx="330" cy="465" r="23" fill="none" stroke="#1a1a1a" stroke-width="2"/>
<line x1="330" y1="465" x2="348.2" y2="446.8" stroke="white" stroke-width="6" stroke-linecap="round"/>
<text x="330" y="528" text-anchor="middle" font-size="20" class="label">Atten</text>
<circle cx="285" cy="595" r="18" fill="white" stroke="#1a1a1a" stroke-width="4"/>
<circle cx="285" cy="595" r="9" fill="none" stroke="#1a1a1a" stroke-width="3"/>
<circle cx="285" cy="595" r="3" fill="#1a1a1a"/>
<text x="285" y="637" text-anchor="middle" font-size="17" class="secondary">Speed</text>
<circle cx="375" cy="595" r="18" fill="white" stroke="#1a1a1a" stroke-width="4"/>
<circle cx="375" cy="595" r="9" fill="none" stroke="#1a1a1a" stroke-width="3"/>
<circle cx="375" cy="595" r="3" fill="#1a1a1a"/>
<text x="375" y="637" text-anchor="middle" font-size="17" class="secondary">Texture</text>
<circle cx="355" cy="705" r="18" fill="white" stroke="#1a1a1a" stroke-width="4"/>
<circle cx="355" cy="705" r="9" fill="none" stroke="#1a1a1a" stroke-width="3"/>
<circle cx="355" cy="705" r="3" fill="#1a1a1a"/>
<text x="355" y="747" text-anchor="middle" font-size="17" class="secondary">Out</text>
<circle cx="290" cy="705" r="10" fill="#e64a2b" opacity="0.95"/><circle cx="290" cy="705" r="15" fill="#e64a2b" opacity="0.15"/>
<circle cx="310" cy="820" r="14" fill="none" stroke="#1a1a1a" stroke-width="8"/><circle cx="350" cy="820" r="14" fill="none" stroke="#1a1a1a" stroke-width="8"/><line x1="320" y1="820" x2="340" y2="820" stroke="#1a1a1a" stroke-width="8" stroke-linecap="round"/>
<line x1="163" y1="205" x2="292" y2="205" stroke="#e64a2b" stroke-width="3"/>
<circle cx="145" cy="205" r="18" fill="#e64a2b"/><text x="145" y="212" text-anchor="middle" font-size="20" class="callout">1</text>
<line x1="163" y1="335" x2="292" y2="335" stroke="#e64a2b" stroke-width="3"/>
<circle cx="145" cy="335" r="18" fill="#e64a2b"/><text x="145" y="342" text-anchor="middle" font-size="20" class="callout">2</text>
<line x1="163" y1="465" x2="292" y2="465" stroke="#e64a2b" stroke-width="3"/>
<circle cx="145" cy="465" r="18" fill="#e64a2b"/><text x="145" y="472" text-anchor="middle" font-size="20" class="callout">3</text>
<line x1="163" y1="595" x2="268" y2="595" stroke="#e64a2b" stroke-width="3"/>
<circle cx="145" cy="595" r="18" fill="#e64a2b"/><text x="145" y="602" text-anchor="middle" font-size="20" class="callout">4</text>
<line x1="487" y1="595" x2="392" y2="595" stroke="#e64a2b" stroke-width="3"/>
<circle cx="505" cy="595" r="18" fill="#e64a2b"/><text x="505" y="602" text-anchor="middle" font-size="20" class="callout">5</text>
<line x1="487" y1="705" x2="374" y2="705" stroke="#e64a2b" stroke-width="3"/>
<circle cx="505" cy="705" r="18" fill="#e64a2b"/><text x="505" y="712" text-anchor="middle" font-size="20" class="callout">6</text>
<line x1="163" y1="705" x2="277" y2="705" stroke="#e64a2b" stroke-width="3"/>
<circle cx="145" cy="705" r="18" fill="#e64a2b"/><text x="145" y="712" text-anchor="middle" font-size="20" class="callout">7</text>
</svg>
