<svg xmlns="http://www.w3.org/2000/svg" viewBox="0 0 1056 455" role="img" aria-label="Pump duck and recovery contours">
<title>Pump duck and recovery contours</title>
<style>
.title{font-family:Ubuntu,"Ubuntu Sans",Arial,sans-serif;font-size:29px;font-weight:700;fill:#1a1a1a}
.subtitle{font-family:Ubuntu,"Ubuntu Sans",Arial,sans-serif;font-size:18px;font-weight:300;fill:#6e6e6e}
.label{font-family:Ubuntu,"Ubuntu Sans",Arial,sans-serif;font-size:18px;font-weight:500;fill:#1a1a1a}
.small{font-family:Ubuntu,"Ubuntu Sans",Arial,sans-serif;font-size:15px;font-weight:300;fill:#6e6e6e}
</style>
<rect width="1056" height="455" fill="white"/>
<text x="34" y="52" class="title">Pump — reset, then recover</text>
<text x="34" y="87" class="subtitle">Every internal quarter note starts at zero; Texture moves the recovery endpoint from 1/4 to 15/16 of the beat</text>
<line x1="110" y1="337" x2="1015" y2="337" stroke="#dedede" stroke-width="2"/>
<line x1="110" y1="118" x2="110" y2="337" stroke="#e64a2b" stroke-width="3"/>
<polyline points="110.0,337.0 114.1,336.8 118.3,336.1 122.4,335.1 126.5,333.7 130.7,331.9 134.8,329.7 138.9,327.2 143.1,324.3 147.2,321.2 151.3,317.8 155.5,314.0 159.6,310.1 163.7,305.8 167.9,301.4 172.0,296.7 176.1,291.8 180.3,286.8 184.4,281.6 188.5,276.2 192.6,270.7 196.8,265.1 200.9,259.3 205.0,253.5 209.2,247.6 213.3,241.7 217.4,235.7 221.6,229.7 225.7,223.8 229.8,217.8 234.0,211.8 238.1,205.9 242.2,200.0 246.4,194.2 250.5,188.5 254.6,182.9 258.8,177.5 262.9,172.1 267.0,167.0 271.2,161.9 275.3,157.1 279.4,152.5 283.6,148.1 287.7,143.9 291.8,140.0 296.0,136.4 300.1,133.0 304.2,129.9 308.4,127.2 312.5,124.7 316.6,122.7 320.8,120.9 324.9,119.6 329.0,118.7 333.2,118.1 337.3,118.0 341.4,118.0 345.5,118.0 349.7,118.0 353.8,118.0 357.9,118.0 362.1,118.0 366.2,118.0 370.3,118.0 374.5,118.0 378.6,118.0 382.7,118.0 386.9,118.0 391.0,118.0 395.1,118.0 399.3,118.0 403.4,118.0 407.5,118.0 411.7,118.0 415.8,118.0 419.9,118.0 424.1,118.0 428.2,118.0 432.3,118.0 436.5,118.0 440.6,118.0 444.7,118.0 448.9,118.0 453.0,118.0 457.1,118.0 461.3,118.0 465.4,118.0 469.5,118.0 473.7,118.0 477.8,118.0 481.9,118.0 486.1,118.0 490.2,118.0 494.3,118.0 498.4,118.0 502.6,118.0 506.7,118.0 510.8,118.0 515.0,118.0 519.1,118.0 523.2,118.0 527.4,118.0 531.5,118.0 535.6,118.0 539.8,118.0 543.9,118.0 548.0,118.0 552.2,118.0 556.3,118.0 560.4,118.0 564.6,118.0 568.7,118.0 572.8,118.0 577.0,118.0 581.1,118.0 585.2,118.0 589.4,118.0 593.5,118.0 597.6,118.0 601.8,118.0 605.9,118.0 610.0,118.0 614.2,118.0 618.3,118.0 622.4,118.0 626.6,118.0 630.7,118.0 634.8,118.0 638.9,118.0 643.1,118.0 647.2,118.0 651.3,118.0 655.5,118.0 659.6,118.0 663.7,118.0 667.9,118.0 672.0,118.0 676.1,118.0 680.3,118.0 684.4,118.0 688.5,118.0 692.7,118.0 696.8,118.0 700.9,118.0 705.1,118.0 709.2,118.0 713.3,118.0 717.5,118.0 721.6,118.0 725.7,118.0 729.9,118.0 734.0,118.0 738.1,118.0 742.3,118.0 746.4,118.0 750.5,118.0 754.7,118.0 758.8,118.0 762.9,118.0 767.1,118.0 771.2,118.0 775.3,118.0 779.5,118.0 783.6,118.0 787.7,118.0 791.8,118.0 796.0,118.0 800.1,118.0 804.2,118.0 808.4,118.0 812.5,118.0 816.6,118.0 820.8,118.0 824.9,118.0 829.0,118.0 833.2,118.0 837.3,118.0 841.4,118.0 845.6,118.0 849.7,118.0 853.8,118.0 858.0,118.0 862.1,118.0 866.2,118.0 870.4,118.0 874.5,118.0 878.6,118.0 882.8,118.0 886.9,118.0 891.0,118.0 895.2,118.0 899.3,118.0 903.4,118.0 907.6,118.0 911.7,118.0 915.8,118.0 920.0,118.0 924.1,118.0 928.2,118.0 932.4,118.0 936.5,118.0 940.6,118.0 944.7,118.0 948.9,118.0 953.0,118.0 957.1,118.0 961.3,118.0 965.4,118.0 969.5,118.0 973.7,118.0 977.8,118.0 981.9,118.0 986.1,118.0 990.2,118.0 994.3,118.0 998.5,118.0 1002.6,118.0 1006.7,118.0 1010.9,118.0 1015.0,118.0" fill="none" stroke="#8d8d8d" stroke-width="4"/>
<polyline points="110.0,337.0 114.1,337.0 118.3,336.9 122.4,336.9 126.5,336.8 130.7,336.6 134.8,336.4 138.9,336.3 143.1,336.0 147.2,335.8 151.3,335.5 155.5,335.2 159.6,334.8 163.7,334.5 167.9,334.1 172.0,333.7 176.1,333.2 180.3,332.7 184.4,332.2 188.5,331.7 192.6,331.2 196.8,330.6 200.9,330.0 205.0,329.4 209.2,328.7 213.3,328.0 217.4,327.4 221.6,326.6 225.7,325.9 229.8,325.1 234.0,324.3 238.1,323.5 242.2,322.7 246.4,321.8 250.5,321.0 254.6,320.1 258.8,319.2 262.9,318.2 267.0,317.3 271.2,316.3 275.3,315.3 279.4,314.3 283.6,313.3 287.7,312.2 291.8,311.1 296.0,310.1 300.1,308.9 304.2,307.8 308.4,306.7 312.5,305.5 316.6,304.4 320.8,303.2 324.9,302.0 329.0,300.8 333.2,299.5 337.3,298.3 341.4,297.0 345.5,295.7 349.7,294.4 353.8,293.1 357.9,291.8 362.1,290.5 366.2,289.1 370.3,287.8 374.5,286.4 378.6,285.0 382.7,283.7 386.9,282.3 391.0,280.8 395.1,279.4 399.3,278.0 403.4,276.5 407.5,275.1 411.7,273.6 415.8,272.2 419.9,270.7 424.1,269.2 428.2,267.7 432.3,266.2 436.5,264.7 440.6,263.2 444.7,261.6 448.9,260.1 453.0,258.6 457.1,257.0 461.3,255.5 465.4,253.9 469.5,252.4 473.7,250.8 477.8,249.2 481.9,247.6 486.1,246.1 490.2,244.5 494.3,242.9 498.4,241.3 502.6,239.7 506.7,238.1 510.8,236.5 515.0,234.9 519.1,233.3 523.2,231.7 527.4,230.1 531.5,228.5 535.6,227.0 539.8,225.4 543.9,223.8 548.0,222.2 552.2,220.6 556.3,219.0 560.4,217.4 564.6,215.8 568.7,214.2 572.8,212.6 577.0,211.0 581.1,209.4 585.2,207.8 589.4,206.3 593.5,204.7 597.6,203.1 601.8,201.6 605.9,200.0 610.0,198.5 614.2,196.9 618.3,195.4 622.4,193.8 626.6,192.3 630.7,190.8 634.8,189.3 638.9,187.8 643.1,186.3 647.2,184.8 651.3,183.3 655.5,181.8 659.6,180.4 663.7,178.9 667.9,177.5 672.0,176.0 676.1,174.6 680.3,173.2 684.4,171.8 688.5,170.4 692.7,169.0 696.8,167.6 700.9,166.3 705.1,164.9 709.2,163.6 713.3,162.3 717.5,161.0 721.6,159.7 725.7,158.4 729.9,157.1 734.0,155.9 738.1,154.6 742.3,153.4 746.4,152.2 750.5,151.0 754.7,149.8 758.8,148.7 762.9,147.5 767.1,146.4 771.2,145.3 775.3,144.2 779.5,143.1 783.6,142.1 787.7,141.0 791.8,140.0 796.0,139.0 800.1,138.0 804.2,137.1 808.4,136.1 812.5,135.2 816.6,134.3 820.8,133.4 824.9,132.6 829.0,131.7 833.2,130.9 837.3,130.1 841.4,129.3 845.6,128.6 849.7,127.9 853.8,127.2 858.0,126.5 862.1,125.8 866.2,125.2 870.4,124.6 874.5,124.0 878.6,123.4 882.8,122.9 886.9,122.4 891.0,121.9 895.2,121.5 899.3,121.0 903.4,120.6 907.6,120.3 911.7,119.9 915.8,119.6 920.0,119.3 924.1,119.0 928.2,118.8 932.4,118.6 936.5,118.4 940.6,118.3 944.7,118.2 948.9,118.1 953.0,118.0 957.1,118.0 961.3,118.0 965.4,118.0 969.5,118.0 973.7,118.0 977.8,118.0 981.9,118.0 986.1,118.0 990.2,118.0 994.3,118.0 998.5,118.0 1002.6,118.0 1006.7,118.0 1010.9,118.0 1015.0,118.0" fill="none" stroke="#e64a2b" stroke-width="5"/>
<text x="110" y="385" class="small">beat boundary / instant duck</text>
<text x="390" y="385" class="small">grey: low Texture / fast recovery</text>
<text x="718" y="385" class="small">orange: high Texture / late recovery</text>
</svg>